<?xml version="1.0" encoding="UTF-8" standalone="no"?>
<!-- Created with Inkscape (http://www.inkscape.org/) -->

<svg
   xmlns:dc="http://purl.org/dc/elements/1.1/"
   xmlns:cc="http://creativecommons.org/ns#"
   xmlns:rdf="http://www.w3.org/1999/02/22-rdf-syntax-ns#"
   xmlns:svg="http://www.w3.org/2000/svg"
   xmlns="http://www.w3.org/2000/svg"
   xmlns:sodipodi="http://sodipodi.sourceforge.net/DTD/sodipodi-0.dtd"
   xmlns:inkscape="http://www.inkscape.org/namespaces/inkscape"
   width="210mm"
   height="297mm"
   viewBox="0 0 744.09448819 1052.3622047"
   id="svg2"
   version="1.1"
   inkscape:version="0.91 r13725"
   sodipodi:docname="logo_ofreceme.svg">
  <defs
     id="defs4" />
  <sodipodi:namedview
     id="base"
     pagecolor="#ffffff"
     bordercolor="#666666"
     borderopacity="1.0"
     inkscape:pageopacity="0.0"
     inkscape:pageshadow="2"
     inkscape:zoom="5.5810427"
     inkscape:cx="186.0875"
     inkscape:cy="713.03074"
     inkscape:document-units="px"
     inkscape:current-layer="layer1"
     showgrid="false"
     inkscape:window-width="1366"
     inkscape:window-height="703"
     inkscape:window-x="0"
     inkscape:window-y="0"
     inkscape:window-maximized="1" />
  <metadata
     id="metadata7">
    <rdf:RDF>
      <cc:Work
         rdf:about="">
        <dc:format>image/svg+xml</dc:format>
        <dc:type
           rdf:resource="http://purl.org/dc/dcmitype/StillImage" />
        <dc:title></dc:title>
      </cc:Work>
    </rdf:RDF>
  </metadata>
  <g
     inkscape:label="Layer 1"
     inkscape:groupmode="layer"
     id="layer1">
    <text
       xml:space="preserve"
       style="font-style:normal;font-variant:normal;font-weight:normal;font-stretch:normal;font-size:30.63999939px;line-height:125%;font-family:Gotham;-inkscape-font-specification:'Gotham, Normal';text-align:start;letter-spacing:0px;word-spacing:0px;writing-mode:lr-tb;text-anchor:start;fill:#000000;fill-opacity:1;stroke:none;stroke-width:1px;stroke-linecap:butt;stroke-linejoin:miter;stroke-opacity:1"
       x="108.57143"
       y="166.64792"
       id="text8068"
       sodipodi:linespacing="125%"><tspan
         sodipodi:role="line"
         id="tspan8070"
         x="108.57143"
         y="166.64792">OFRECDME</tspan></text>
    <text
       xml:space="preserve"
       style="font-style:normal;font-variant:normal;font-weight:normal;font-stretch:normal;font-size:30.63999939px;line-height:125%;font-family:Gotham;-inkscape-font-specification:'Gotham, Normal';text-align:start;letter-spacing:0px;word-spacing:0px;writing-mode:lr-tb;text-anchor:start;fill:#000000;fill-opacity:1;stroke:none;stroke-width:1px;stroke-linecap:butt;stroke-linejoin:miter;stroke-opacity:1"
       x="128.57143"
       y="258.07648"
       id="text8072"
       sodipodi:linespacing="125%"><tspan
         sodipodi:role="line"
         id="tspan8074"
         x="128.57143"
         y="258.07648">Ofreceme</tspan></text>
    <path
       inkscape:connector-curvature="0"
       id="path8085"
       style="font-style:normal;font-variant:normal;font-weight:normal;font-stretch:normal;font-size:medium;line-height:125%;font-family:Gotham;-inkscape-font-specification:'Gotham, Normal';text-align:start;letter-spacing:0px;word-spacing:0px;writing-mode:lr-tb;text-anchor:start;fill:#000000;fill-opacity:1;stroke:none;stroke-width:1px;stroke-linecap:butt;stroke-linejoin:miter;stroke-opacity:1"
       d="m 209.30262,360.93362 4.65728,0 0,-6.06672 c 0,-3.92192 1.89968,-5.79096 4.99432,-5.79096 l 0.24512,0 0,-4.87176 c -2.7576,-0.12256 -4.2896,1.34816 -5.23944,3.61552 l 0,-3.30912 -4.65728,0 0,16.42304 z" />
    <path
       inkscape:connector-curvature="0"
       id="path8087"
       style="font-style:normal;font-variant:normal;font-weight:normal;font-stretch:normal;font-size:medium;line-height:125%;font-family:Gotham;-inkscape-font-specification:'Gotham, Normal';text-align:start;letter-spacing:0px;word-spacing:0px;writing-mode:lr-tb;text-anchor:start;fill:#000000;fill-opacity:1;stroke:none;stroke-width:1px;stroke-linecap:butt;stroke-linejoin:miter;stroke-opacity:1"
       d="m 229.41299,361.3013 c 2.97208,0 5.17816,-1.16432 6.71016,-3.064 l -2.66568,-2.35928 c -1.28688,1.19496 -2.42056,1.6852 -3.9832,1.6852 -2.08352,0 -3.55424,-1.10304 -4.01384,-3.2172 l 11.42872,0 c 0.0306,-0.42896 0.0613,-0.85792 0.0613,-1.2256 0,-4.65728 -2.51248,-8.91624 -7.99704,-8.91624 -4.77984,0 -8.1196,3.86064 -8.1196,8.54856 l 0,0.0613 c 0,5.02496 3.64616,8.48728 8.5792,8.48728 z m -4.01384,-9.86608 c 0.36768,-2.11416 1.62392,-3.49296 3.55424,-3.49296 1.96096,0 3.18656,1.40944 3.46232,3.49296 l -7.01656,0 z" />
    <path
       inkscape:connector-curvature="0"
       id="path8089"
       style="font-style:normal;font-variant:normal;font-weight:normal;font-stretch:normal;font-size:medium;line-height:125%;font-family:Gotham;-inkscape-font-specification:'Gotham, Normal';text-align:start;letter-spacing:0px;word-spacing:0px;writing-mode:lr-tb;text-anchor:start;fill:#000000;fill-opacity:1;stroke:none;stroke-width:1px;stroke-linecap:butt;stroke-linejoin:miter;stroke-opacity:1"
       d="m 248.17329,361.3013 c 3.27848,0 5.11688,-1.25624 6.71016,-3.00272 l -2.72696,-2.7576 c -1.13368,1.0724 -2.20608,1.74648 -3.76872,1.74648 -2.54312,0 -4.16704,-2.02224 -4.16704,-4.53472 l 0,-0.0613 c 0,-2.42056 1.65456,-4.47344 3.9832,-4.47344 1.65456,0 2.69632,0.70472 3.73808,1.80776 l 2.84952,-3.064 c -1.532,-1.71584 -3.46232,-2.7576 -6.55696,-2.7576 -5.02496,0 -8.60984,3.86064 -8.60984,8.54856 l 0,0.0613 c 0,4.68792 3.61552,8.48728 8.54856,8.48728 z" />
    <path
       inkscape:connector-curvature="0"
       id="path8091"
       style="font-style:normal;font-variant:normal;font-weight:normal;font-stretch:normal;font-size:medium;line-height:125%;font-family:Gotham;-inkscape-font-specification:'Gotham, Normal';text-align:start;letter-spacing:0px;word-spacing:0px;writing-mode:lr-tb;text-anchor:start;fill:#000000;fill-opacity:1;stroke:none;stroke-width:1px;stroke-linecap:butt;stroke-linejoin:miter;stroke-opacity:1"
       d="m 265.19955,361.3013 c 2.97208,0 5.17816,-1.16432 6.71016,-3.064 l -2.66568,-2.35928 c -1.28688,1.19496 -2.42056,1.6852 -3.9832,1.6852 -2.08352,0 -3.55424,-1.10304 -4.01384,-3.2172 l 11.42872,0 c 0.0306,-0.42896 0.0613,-0.85792 0.0613,-1.2256 0,-4.65728 -2.51248,-8.91624 -7.99704,-8.91624 -4.77984,0 -8.1196,3.86064 -8.1196,8.54856 l 0,0.0613 c 0,5.02496 3.64616,8.48728 8.5792,8.48728 z m -4.01384,-9.86608 c 0.36768,-2.11416 1.62392,-3.49296 3.55424,-3.49296 1.96096,0 3.18656,1.40944 3.46232,3.49296 l -7.01656,0 z" />
    <path
       inkscape:connector-curvature="0"
       id="path8093"
       style="font-style:normal;font-variant:normal;font-weight:normal;font-stretch:normal;font-size:medium;line-height:125%;font-family:Gotham;-inkscape-font-specification:'Gotham, Normal';text-align:start;letter-spacing:0px;word-spacing:0px;writing-mode:lr-tb;text-anchor:start;fill:#000000;fill-opacity:1;stroke:none;stroke-width:1px;stroke-linecap:butt;stroke-linejoin:miter;stroke-opacity:1"
       d="m 276.20793,360.93362 4.65728,0 0,-9.16136 c 0,-2.20608 1.0724,-3.33976 2.81888,-3.33976 1.74648,0 2.72696,1.13368 2.72696,3.33976 l 0,9.16136 4.65728,0 0,-9.16136 c 0,-2.20608 1.0724,-3.33976 2.81888,-3.33976 1.74648,0 2.72696,1.13368 2.72696,3.33976 l 0,9.16136 4.65728,0 0,-10.69336 c 0,-3.95256 -2.08352,-6.03608 -5.54584,-6.03608 -2.23672,0 -3.95256,0.9192 -5.39264,2.6044 -0.85792,-1.65456 -2.48184,-2.6044 -4.62664,-2.6044 -2.35928,0 -3.76872,1.25624 -4.84112,2.63504 l 0,-2.32864 -4.65728,0 0,16.42304 z" />
    <path
       inkscape:connector-curvature="0"
       id="path8095"
       style="font-style:normal;font-variant:normal;font-weight:normal;font-stretch:normal;font-size:medium;line-height:125%;font-family:Gotham;-inkscape-font-specification:'Gotham, Normal';text-align:start;letter-spacing:0px;word-spacing:0px;writing-mode:lr-tb;text-anchor:start;fill:#000000;fill-opacity:1;stroke:none;stroke-width:1px;stroke-linecap:butt;stroke-linejoin:miter;stroke-opacity:1"
       d="m 313.07456,361.3013 c 2.97208,0 5.17816,-1.16432 6.71016,-3.064 l -2.66568,-2.35928 c -1.28688,1.19496 -2.42056,1.6852 -3.9832,1.6852 -2.08352,0 -3.55424,-1.10304 -4.01384,-3.2172 l 11.42872,0 c 0.0306,-0.42896 0.0613,-0.85792 0.0613,-1.2256 0,-4.65728 -2.51248,-8.91624 -7.99704,-8.91624 -4.77984,0 -8.1196,3.86064 -8.1196,8.54856 l 0,0.0613 c 0,5.02496 3.64616,8.48728 8.5792,8.48728 z m -4.01384,-9.86608 c 0.36768,-2.11416 1.62392,-3.49296 3.55424,-3.49296 1.96096,0 3.18656,1.40944 3.46232,3.49296 l -7.01656,0 z" />
    <rect
       style="opacity:1;fill:none;fill-opacity:1;stroke:none;stroke-width:8.50599957;stroke-miterlimit:4;stroke-dasharray:none;stroke-opacity:1"
       id="rect8123"
       width="41.74847"
       height="25.622452"
       x="138.86293"
       y="337.26282" />
    <path
       inkscape:connector-curvature="0"
       id="path8081"
       style="font-style:normal;font-variant:normal;font-weight:normal;font-stretch:normal;font-size:medium;line-height:125%;font-family:Gotham;-inkscape-font-specification:'Gotham, Normal';text-align:start;letter-spacing:0px;word-spacing:0px;writing-mode:lr-tb;text-anchor:start;fill:#000000;fill-opacity:1;stroke:none;stroke-width:1px;stroke-linecap:butt;stroke-linejoin:miter;stroke-opacity:1"
       d="m 149.04967,361.19502 c 5.11688,0 8.91624,-3.83 8.91624,-8.54856 l 0,-0.0613 c 0,-4.71856 -3.76872,-8.48728 -8.85496,-8.48728 -5.11688,0 -8.91624,3.83 -8.91624,8.54856 l 0,0.0613 c 0,4.71856 3.76872,8.48728 8.85496,8.48728 z m 0.0613,-4.01384 c -2.57376,0 -4.32024,-2.11416 -4.32024,-4.53472 l 0,-0.0613 c 0,-2.42056 1.59328,-4.47344 4.25896,-4.47344 2.57376,0 4.32024,2.11416 4.32024,4.53472 l 0,0.0613 c 0,2.42056 -1.59328,4.47344 -4.25896,4.47344 z" />
    <path
       inkscape:connector-curvature="0"
       id="path8083"
       style="font-style:normal;font-variant:normal;font-weight:normal;font-stretch:normal;font-size:medium;line-height:125%;font-family:Gotham;-inkscape-font-specification:'Gotham, Normal';text-align:start;letter-spacing:0px;word-spacing:0px;writing-mode:lr-tb;text-anchor:start;fill:#00ff00;fill-opacity:1;stroke:none;stroke-width:1px;stroke-linecap:butt;stroke-linejoin:miter;stroke-opacity:1"
       d="m 161.41816,361.36488 4.65728,0 0,-12.43984 3.70744,0 0,-3.79936 -3.76872,0 0,-0.64344 c 0,-1.2256 0.6128,-1.77712 1.6852,-1.77712 0.79664,0 1.44008,0.1532 2.11416,0.39832 l 0,-3.86064 c -0.85792,-0.27576 -1.8384,-0.4596 -3.30912,-0.4596 -1.65456,0 -2.9108,0.42896 -3.76872,1.28688 -0.85792,0.85792 -1.31752,2.17544 -1.31752,3.9832 l 0,1.04176 -1.93032,0 0,3.83 1.93032,0 0,12.43984 z" />
    <path
       inkscape:connector-curvature="0"
       id="path8114"
       style="font-style:normal;font-variant:normal;font-weight:normal;font-stretch:normal;font-size:medium;line-height:125%;font-family:Gotham;-inkscape-font-specification:'Gotham, Normal';text-align:start;letter-spacing:0px;word-spacing:0px;writing-mode:lr-tb;text-anchor:start;fill:#000000;fill-opacity:1;stroke:none;stroke-width:1px;stroke-linecap:butt;stroke-linejoin:miter;stroke-opacity:1"
       d="m 175.12333,353.51575 2.57376,0 1.44008,-13.54288 0,-0.6128 -5.45392,0 0,0.6128 z"
       sodipodi:nodetypes="ccccccc" />
    <path
       style="opacity:1;fill:#00ff00;fill-opacity:1;stroke:none;stroke-width:8.50599957;stroke-miterlimit:4;stroke-dasharray:none;stroke-opacity:1"
       id="path8111"
       sodipodi:type="arc"
       sodipodi:cx="176.41022"
       sodipodi:cy="358.5752"
       sodipodi:rx="2.8694077"
       sodipodi:ry="2.7897017"
       sodipodi:start="6.137939"
       sodipodi:end="6.1360967"
       d="m 179.24941,358.17142 a 2.8694077,2.7897017 0 0 1 -2.42258,3.16392 2.8694077,2.7897017 0 0 1 -3.25542,-2.35383 2.8694077,2.7897017 0 0 1 2.41958,-3.16608 2.8694077,2.7897017 0 0 1 3.25765,2.35091 l -2.83842,0.40886 z" />
  </g>
</svg>
